<svg width="25" height="28" viewBox="0 0 25 28" fill="none" xmlns="http://www.w3.org/2000/svg">
<path d="M24.5 4.00001V6.49999C24.5 8.70313 19.013 10.5 12.25 10.5C5.48696 10.5 0 8.70313 0 6.49999V4.00001C0 1.79687 5.48696 0 12.25 0C19.013 0 24.5 1.79687 24.5 4.00001ZM24.5 9.625V15.25C24.5 17.4531 19.013 19.25 12.25 19.25C5.48696 19.25 0 17.4531 0 15.25V9.625C2.63184 11.4375 7.44887 12.2813 12.25 12.2813C17.0511 12.2813 21.8681 11.4375 24.5 9.625ZM24.5 18.375V24C24.5 26.2031 19.013 28 12.25 28C5.48696 28 0 26.2031 0 24V18.375C2.63184 20.1875 7.44887 21.0313 12.25 21.0313C17.0511 21.0313 21.8681 20.1875 24.5 18.375Z" fill="white"/>
</svg>
