<svg width="17" height="18" viewBox="0 0 17 18" fill="none" xmlns="http://www.w3.org/2000/svg">
<path d="M16.7851 15.8902L11.4747 10.5798C12.2988 9.51441 12.7445 8.21185 12.7445 6.84182C12.7445 5.20187 12.1045 3.66416 10.9471 2.50474C9.78977 1.34532 8.24797 0.707336 6.61007 0.707336C4.97216 0.707336 3.43036 1.34737 2.27299 2.50474C1.11357 3.66211 0.475586 5.20187 0.475586 6.84182C0.475586 8.47972 1.11562 10.0215 2.27299 11.1789C3.43036 12.3383 4.97012 12.9763 6.61007 12.9763C7.9801 12.9763 9.28061 12.5305 10.346 11.7085L15.6564 17.0169C15.672 17.0325 15.6904 17.0448 15.7108 17.0532C15.7311 17.0617 15.753 17.066 15.775 17.066C15.797 17.066 15.8188 17.0617 15.8392 17.0532C15.8595 17.0448 15.878 17.0325 15.8936 17.0169L16.7851 16.1274C16.8007 16.1118 16.8131 16.0933 16.8215 16.073C16.8299 16.0526 16.8343 16.0308 16.8343 16.0088C16.8343 15.9867 16.8299 15.9649 16.8215 15.9446C16.8131 15.9242 16.8007 15.9057 16.7851 15.8902ZM9.84907 10.0808C8.98207 10.9458 7.83287 11.4222 6.61007 11.4222C5.38726 11.4222 4.23807 10.9458 3.37106 10.0808C2.5061 9.21382 2.02965 8.06462 2.02965 6.84182C2.02965 5.61901 2.5061 4.46777 3.37106 3.60281C4.23807 2.73785 5.38726 2.2614 6.61007 2.2614C7.83287 2.2614 8.98411 2.7358 9.84907 3.60281C10.714 4.46982 11.1905 5.61901 11.1905 6.84182C11.1905 8.06462 10.714 9.21586 9.84907 10.0808Z" fill="white"/>
</svg>

